# xmcd
#
# Track frame offsets: 
#        150
#        10376
#        24224
#        50209
#        67081
#        72486
#        90323
#        112197
#        117949
#        137250
#        169800
#
# Disc length: 2290 seconds
#
# Revision: 0
# Processed by: cddbd v1.5.2PL0 Copyright (c) Steve Scherf et al.
# Submitted via: ExactAudioCopy v1.0b1
#
DISCID=9708f00b
DTITLE=Leijona - Herra MC
DYEAR=2002
DGENRE=Hip-Hop
TTITLE0=Intro
TTITLE1=Herra MC
TTITLE2=L‰pi Suomen (feat. Vaeltava Aave, Herra Soppa and TKK)
TTITLE3=Yks Rotu, Ihmisrotu (feat. Tidal Wave)
TTITLE4=Skit 1
TTITLE5=Huput P‰‰h‰n (Armoton Meininki)
TTITLE6=Kyyk‰‰rme (feat. Forever DT Mob)
TTITLE7=Skit 2
TTITLE8=Mit‰ S‰ Tied‰t? (feat. Money)
TTITLE9=Bonus
TTITLE10=Data
EXTD=
EXTT0=
EXTT1=
EXTT2=
EXTT3=
EXTT4=
EXTT5=
EXTT6=
EXTT7=
EXTT8=
EXTT9=
EXTT10=
PLAYORDER=
